<svg width="18" height="18" viewBox="0 0 18 18" fill="none" xmlns="http://www.w3.org/2000/svg">
<path d="M3.375 2.25C2.75368 2.25 2.25 2.75368 2.25 3.375V5.625C2.25 6.24632 2.75368 6.75 3.375 6.75H5.625C6.24632 6.75 6.75 6.24632 6.75 5.625V5.25H15.375C15.5821 5.25 15.75 5.08211 15.75 4.875V4.125C15.75 3.91789 15.5821 3.75 15.375 3.75H6.75V3.375C6.75 2.75368 6.24632 2.25 5.625 2.25H3.375ZM3.75 5.25V3.75H5.25V5.25H3.75Z" fill="#1C6DAF"/>
<path d="M15.375 14.25C15.5821 14.25 15.75 14.0821 15.75 13.875V13.125C15.75 12.9179 15.5821 12.75 15.375 12.75H6.75V12.375C6.75 11.7537 6.24632 11.25 5.625 11.25H3.375C2.75368 11.25 2.25 11.7537 2.25 12.375V14.625C2.25 15.2463 2.75368 15.75 3.375 15.75H5.625C6.24632 15.75 6.75 15.2463 6.75 14.625V14.25H15.375ZM3.75 14.25V12.75H5.25V14.25H3.75Z" fill="#1C6DAF"/>
<path d="M11.25 7.875V8.25H2.625C2.41789 8.25 2.25 8.41789 2.25 8.625V9.375C2.25 9.58211 2.41789 9.75 2.625 9.75H11.25V10.125C11.25 10.7463 11.7537 11.25 12.375 11.25H14.625C15.2463 11.25 15.75 10.7463 15.75 10.125V7.875C15.75 7.25368 15.2463 6.75 14.625 6.75H12.375C11.7537 6.75 11.25 7.25368 11.25 7.875ZM12.75 8.25H14.25V9.75H12.75V8.25Z" fill="#1C6DAF"/>
</svg>
